<svg width="228" height="80" viewBox="0 0 228 80" fill="none" xmlns="http://www.w3.org/2000/svg">
<path d="M14.7585 12.4138L18.2068 15.8621C18.4827 16.1379 18.6206 16.2759 19.0344 16.4138C19.4482 16.5517 31.5861 16.4138 31.9999 16.4138C32.4137 16.4138 32.6895 16.2759 33.1033 15.8621L36.6896 12.2759C36.9654 12 37.1034 11.7241 37.1034 11.5862C37.1034 11.0345 36.9654 10.8966 36.6896 10.6207L26.6206 0.275861C26.2068 0.137929 26.0689 0 25.793 0C25.6551 0 25.3792 5.2411e-07 25.2413 0.137932C25.1033 0.137932 24.9654 0.275861 24.8275 0.413792L14.7585 10.7586C14.6206 10.8966 14.4826 11.0345 14.4826 11.1724C14.3447 11.3103 14.3447 11.5862 14.3447 11.7241C14.3447 11.8621 14.3447 12.1379 14.4826 12.2759C14.6206 12.1379 14.7585 12.2759 14.7585 12.4138Z" fill="#2B4FFF"/>
<path d="M23.603 79.072L12.4136 67.5679L25.517 53.7932L38.6205 67.5679L27.431 79.2234C26.4004 80.283 24.6336 80.283 23.603 79.072Z" fill="#2B4FFF"/>
<path fill-rule="evenodd" clip-rule="evenodd" d="M49.6552 35.0344C48.2759 31.862 46.3448 29.1034 44.1379 26.7586C41.7931 24.4137 39.0345 22.6206 36 21.2413C32.8276 19.862 29.5172 19.1724 25.931 19.1724C23.5862 19.1724 21.2414 19.5862 18.8966 20.1379C16.6897 20.6896 14.6207 21.6551 12.6897 22.7586C10.7586 23.862 9.10345 25.2413 7.44828 26.7586C5.93104 28.4137 4.55172 30.0689 3.44828 32C2.34483 33.931 1.51724 36 0.827584 38.3448C0.27586 40.5517 0 42.8965 0 45.3793C0 47.862 0.413789 50.2069 0.965513 52.4137C1.51724 54.6206 2.34483 56.6896 3.44828 58.6206C4.55172 60.5517 5.93104 62.3448 7.44828 63.862L9.51725 65.5172L24.2759 50.3448C24.5517 50.0689 24.6897 49.931 24.9655 49.7931C25.1035 49.6551 25.3793 49.6551 25.5172 49.6551C25.8012 49.6551 26.0201 49.785 26.3079 49.9556C26.4395 50.0337 26.5855 50.1203 26.7586 50.2069L41.931 65.5172C42.1609 65.3333 42.3908 65.1647 42.6207 64.9961C43.0805 64.659 43.5402 64.3218 44 63.862C45.5173 62.2069 46.8966 60.5517 48 58.6206C49.1035 56.6896 50.069 54.6206 50.6207 52.2758C51.1724 50.0689 51.5862 47.5862 51.5862 45.2413C51.7242 41.6551 51.0345 38.2069 49.6552 35.0344ZM32.2759 40.4138C32.1379 40.4138 32 40.4138 31.8621 40.2759C31.4483 40 31.3103 39.5862 31.4483 39.0345C31.4483 38.8966 32.8276 36.1379 36.2759 36.1379C39.5862 36.1379 41.5173 38.6207 41.5173 38.7586C41.931 39.1724 41.7931 39.7242 41.3793 40.1379C40.9655 40.5517 40.4138 40.4138 40 40C40 39.8621 38.6207 38.2069 36.1379 38.2069C33.7931 38.2069 32.9655 40 32.9655 40C32.9655 40.1379 32.6897 40.4138 32.2759 40.4138ZM18.4828 39.8621C18.6207 40.1379 18.8966 40.4138 19.3104 40.4138V40.2759H19.5863C20 40 20.2759 39.5862 20 39.0345C19.9847 39.0191 19.9556 38.9712 19.9113 38.8982C19.558 38.316 18.2364 36.1379 15.1724 36.1379C12.1167 36.1379 10.3538 38.2534 9.99223 38.6874C9.96209 38.7235 9.94169 38.748 9.93108 38.7586C9.51728 39.1724 9.51727 39.5862 10.069 40C10.6207 40.4138 11.0345 40.2759 11.4483 39.8621C11.4483 39.7241 12.9656 38.069 15.3104 38.069C17.6552 38.069 18.4828 39.7241 18.4828 39.8621Z" fill="#2B4FFF"/>
<path d="M65.0111 38.2097V57.0899H55.8639V29.7461C55.8639 27.8581 55.8314 26.3173 55.7663 25.1237C55.7229 23.9085 55.6686 22.8234 55.6035 21.8685H64.3275C64.3709 22.1289 64.4251 22.7474 64.4902 23.724C64.5553 24.6789 64.6096 25.6663 64.653 26.6862C64.7181 27.6845 64.7507 28.4115 64.7507 28.8672H64.8809C66.1178 26.1763 67.6695 24.2231 69.5358 23.0079C71.4021 21.7926 73.6265 21.1849 76.209 21.1849C79.9416 21.1849 82.8062 22.3351 84.8027 24.6355C86.7993 26.9358 87.7975 30.2995 87.7975 34.7266V57.0899H78.6829V37.3308C78.6829 34.2275 78.1621 31.9054 77.1204 30.3646C76.0788 28.8238 74.5054 28.0534 72.4004 28.0534C70.1868 28.0534 68.3965 29.0083 67.0293 30.918C65.6838 32.806 65.0111 35.2366 65.0111 38.2097Z" fill="#2B4FFF"/>
<path d="M109.365 71.2175C105.068 71.2175 101.607 70.3928 98.9811 68.7435C96.377 67.1159 94.7711 64.783 94.1634 61.7448L103.311 60.6706C103.636 62.0812 104.331 63.188 105.394 63.9909C106.479 64.7939 107.89 65.1954 109.626 65.1954C112.165 65.1954 114.02 64.4141 115.192 62.8516C116.364 61.2891 116.95 58.9671 116.95 55.8855L117.015 50.5469H116.95C115.952 52.7171 114.508 54.3447 112.62 55.4297C110.732 56.4931 108.4 57.0248 105.622 57.0248C101.52 57.0248 98.3409 55.484 96.084 52.4024C93.827 49.3208 92.6986 44.9154 92.6986 39.1862C92.6986 33.4354 93.8596 28.9974 96.1816 25.8724C98.5037 22.7474 101.878 21.1849 106.305 21.1849C108.866 21.1849 111.025 21.7166 112.783 22.78C114.563 23.8217 115.952 25.4059 116.95 27.5326H117.113C117.113 27.0118 117.134 26.3607 117.178 25.5795C117.221 24.7982 117.275 24.0495 117.34 23.3334C117.427 22.6172 117.503 22.1289 117.568 21.8685H126.227C126.097 24.2123 126.032 26.925 126.032 30.0065V56.0157C126.032 61.0287 124.61 64.8156 121.768 67.3763C118.925 69.9371 114.791 71.2175 109.365 71.2175ZM117.015 38.9909C117.015 35.3668 116.364 32.5456 115.062 30.5274C113.781 28.4875 111.948 27.4675 109.561 27.4675C107.13 27.4675 105.296 28.444 104.059 30.3972C102.844 32.3503 102.236 35.28 102.236 39.1862C102.236 43.0057 102.833 45.8811 104.027 47.8125C105.242 49.7223 107.065 50.6771 109.495 50.6771C111.926 50.6771 113.781 49.668 115.062 47.6498C116.364 45.6098 117.015 42.7236 117.015 38.9909Z" fill="#2B4FFF"/>
<path d="M166.708 39.349C166.708 45.165 165.536 49.6897 163.192 52.9232C160.87 56.135 157.539 57.7409 153.199 57.7409C150.703 57.7409 148.544 57.1984 146.721 56.1133C144.898 55.0282 143.498 53.4657 142.521 51.4258H142.456C142.456 51.925 142.435 52.576 142.391 53.3789C142.348 54.1819 142.294 54.9414 142.229 55.6576C142.163 56.352 142.087 56.8295 142.001 57.0899H133.114C133.201 56.0699 133.266 54.898 133.309 53.5743C133.353 52.2288 133.374 50.7205 133.374 49.0495V8.78259H142.521V22.2592C142.521 23.214 142.5 24.1689 142.456 25.1237C142.435 26.0786 142.413 27.0335 142.391 27.9883H142.521C143.541 25.7314 144.995 24.0387 146.883 22.9102C148.771 21.7817 151.072 21.2175 153.785 21.2175C157.951 21.2175 161.141 22.8017 163.355 25.9701C165.59 29.1168 166.708 33.5764 166.708 39.349ZM157.17 39.349C157.17 35.3559 156.584 32.3937 155.412 30.4623C154.24 28.5309 152.428 27.5651 149.976 27.5651C147.502 27.5651 145.614 28.6068 144.312 30.6901C143.031 32.7518 142.391 35.7357 142.391 39.642C142.391 43.3746 143.021 46.2826 144.279 48.3659C145.56 50.4493 147.437 51.4909 149.911 51.4909C152.341 51.4909 154.153 50.4818 155.347 48.4636C156.562 46.4454 157.17 43.4072 157.17 39.349Z" fill="#2B4FFF"/>
<path d="M194.525 50.0912C193.31 52.7605 191.758 54.7027 189.87 55.918C188.004 57.1333 185.78 57.7409 183.197 57.7409C179.465 57.7409 176.6 56.6016 174.604 54.323C172.607 52.0226 171.609 48.6589 171.609 44.2318V21.8685H180.756V41.6276C180.756 44.7092 181.277 47.0313 182.318 48.5938C183.36 50.1346 184.923 50.905 187.006 50.905C189.219 50.905 190.999 49.961 192.344 48.073C193.712 46.1632 194.395 43.7218 194.395 40.7487V21.8685H203.542V49.2123C203.542 50.7097 203.564 52.1203 203.607 53.444C203.651 54.7461 203.716 55.9614 203.803 57.0899H195.079C194.949 55.5274 194.851 54.1602 194.786 52.9883C194.721 51.8164 194.688 50.8507 194.688 50.0912H194.525ZM192.051 62.2657V69.0039H182.904V62.2657H192.051Z" fill="#2B4FFF"/>
<path d="M227.617 56.569C225.403 57.3069 222.831 57.6758 219.902 57.6758C217.211 57.6758 215.138 56.9488 213.684 55.4948C212.23 54.0191 211.503 51.7947 211.503 48.8217V28.0534H207.044V21.8685H211.959L214.824 13.6003H220.553V21.8685H227.226V28.0534H220.553V46.3477C220.553 48.0621 220.878 49.3316 221.529 50.1563C222.18 50.9592 223.189 51.3607 224.557 51.3607C225.208 51.3607 226.228 51.2088 227.617 50.905V56.569Z" fill="#2B4FFF"/>
</svg>
